<svg width="38" height="37" viewBox="0 0 38 37" fill="none" xmlns="http://www.w3.org/2000/svg">
<path d="M15.9805 3.29096L17.8131 1.45833C18.5891 0.682348 19.8439 0.682348 20.6116 1.45833L36.6595 17.498C37.4355 18.274 37.4355 19.5287 36.6595 20.2965L20.6116 36.3444C19.8356 37.1204 18.5808 37.1204 17.8131 36.3444L15.9805 34.5117C15.1962 33.7275 15.2128 32.448 16.0135 31.6802L25.9609 22.2034H2.23574C1.13781 22.2034 0.254517 21.3201 0.254517 20.2222V17.5805C0.254517 16.4826 1.13781 15.5993 2.23574 15.5993H25.9609L16.0135 6.12246C15.2045 5.35473 15.188 4.07519 15.9805 3.29096Z" fill="black"/>
</svg>
